<svg viewBox="0 0 69 21" fill="none" xmlns="http://www.w3.org/2000/svg">
    <path fill-rule="evenodd" clip-rule="evenodd"
        d="M0.5 16.4428C0.5 15.8082 0.616726 15.237 0.850183 14.7293C1.08364 14.2216 1.4058 13.7819 1.81669 13.4102C2.22757 13.0385 2.70848 12.7371 3.25944 12.5059C3.8104 12.2747 4.42204 12.1319 5.09439 12.0775L9.03045 11.7375C9.52537 11.6831 9.77283 11.4973 9.77283 11.18V10.9624C9.77283 10.5544 9.57206 10.219 9.17052 9.95605C8.76898 9.69314 8.13865 9.56168 7.27953 9.56168C6.89667 9.56168 6.52314 9.59568 6.15895 9.66367C5.79476 9.73167 5.44925 9.83366 5.12241 9.96965C4.79557 10.1056 4.50842 10.2847 4.26096 10.5068C4.0135 10.7289 3.8244 11.0077 3.69366 11.3432L0.878197 9.39849C1.35445 8.33775 2.14819 7.54675 3.25944 7.02545C4.37069 6.50415 5.71071 6.2435 7.27953 6.2435C9.38064 6.2435 10.9518 6.69906 11.993 7.61021C13.0342 8.52135 13.5548 9.95151 13.5548 11.9007V20.5089H9.77283V18.6187C9.38997 19.1717 8.83902 19.6726 8.11997 20.1214C7.40093 20.5701 6.48112 20.7945 5.36053 20.7945C4.65083 20.7945 3.99949 20.6857 3.40652 20.4681C2.81354 20.2506 2.30227 19.9514 1.87272 19.5706C1.44316 19.1898 1.10698 18.7365 0.86419 18.2107C0.621395 17.6849 0.5 17.0956 0.5 16.4428ZM4.43675 16.2526C4.43675 16.6968 4.6095 17.0526 4.95502 17.3201C5.30053 17.5875 5.80479 17.7213 6.46781 17.7213C6.96273 17.7213 7.41797 17.6419 7.83352 17.4833C8.24907 17.3246 8.59925 17.1161 8.88407 16.8577C9.16888 16.5993 9.38833 16.2979 9.54241 15.9534C9.69649 15.6089 9.77353 15.2417 9.77353 14.8519V14.2943L6.21567 14.7159C5.62737 14.8065 5.1838 14.9878 4.88498 15.2598C4.58616 15.5318 4.43675 15.8627 4.43675 16.2526ZM14.0166 6.55615H18.1488L21.3564 14.8516L24.7742 6.55615H27.8418L31.2876 14.8516L34.4673 6.55615H38.5994L32.7724 20.4816H29.9009L26.315 12.2134L22.7011 20.4816H19.8436L14.0166 6.55615ZM38.3358 16.4428C38.3358 15.8082 38.4525 15.237 38.686 14.7293C38.9194 14.2216 39.2416 13.7819 39.6525 13.4102C40.0634 13.0385 40.5443 12.7371 41.0952 12.5059C41.6462 12.2747 42.2578 12.1319 42.9302 12.0775L46.8662 11.7375C47.3612 11.6831 47.6086 11.4973 47.6086 11.18V10.9624C47.6086 10.5544 47.4079 10.219 47.0063 9.95605C46.6048 9.69314 45.9744 9.56168 45.1153 9.56168C44.7325 9.56168 44.3589 9.59568 43.9947 9.66367C43.6306 9.73167 43.285 9.83366 42.9582 9.96965C42.6314 10.1056 42.3442 10.2847 42.0968 10.5068C41.8493 10.7289 41.6602 11.0077 41.5295 11.3432L38.714 9.39849C39.1902 8.33775 39.984 7.54675 41.0952 7.02545C42.2065 6.50415 43.5465 6.2435 45.1153 6.2435C47.2164 6.2435 48.7876 6.69906 49.8288 7.61021C50.87 8.52135 51.3906 9.95151 51.3906 11.9007V20.5089H47.6086V18.6187C47.2258 19.1717 46.6748 19.6726 45.9558 20.1214C45.2367 20.5701 44.3169 20.7945 43.1963 20.7945C42.4866 20.7945 41.8353 20.6857 41.2423 20.4681C40.6493 20.2506 40.1381 19.9514 39.7085 19.5706C39.2789 19.1898 38.9428 18.7365 38.7 18.2107C38.4572 17.6849 38.3358 17.0956 38.3358 16.4428ZM42.2706 16.2526C42.2706 16.6968 42.4434 17.0526 42.7889 17.3201C43.1344 17.5875 43.6387 17.7213 44.3017 17.7213C44.7966 17.7213 45.2518 17.6419 45.6674 17.4833C46.0829 17.3246 46.4331 17.1161 46.7179 16.8577C47.0028 16.5993 47.2222 16.2979 47.3763 15.9534C47.5304 15.6089 47.6074 15.2417 47.6074 14.8519V14.2943L44.0495 14.7159C43.4612 14.8065 43.0177 14.9878 42.7188 15.2598C42.42 15.5318 42.2706 15.8627 42.2706 16.2526ZM53.416 20.4817V6.55629H57.0579V8.84093C57.4408 8.02498 57.9614 7.38357 58.6197 6.91666C59.2781 6.44976 60.1162 6.21631 61.134 6.21631C61.4049 6.21631 61.6476 6.23671 61.8624 6.2775C62.0772 6.3183 62.3013 6.3659 62.5348 6.42029V10.3776C62.264 10.287 61.9862 10.2258 61.7013 10.194C61.4165 10.1623 61.12 10.1464 60.8119 10.1464C59.5512 10.1464 58.6337 10.4864 58.0594 11.1664C57.4851 11.8463 57.198 12.8527 57.198 14.1854V20.4817H53.416ZM63.6535 2.57181C63.6535 1.90092 63.8846 1.33883 64.3469 0.885521C64.8091 0.432216 65.3811 0.205566 66.0627 0.205566C66.7538 0.205566 67.3327 0.432216 67.7997 0.885521C68.2666 1.33883 68.5 1.90092 68.5 2.57181C68.5 3.2427 68.2666 3.80026 67.7997 4.2445C67.3327 4.68874 66.7538 4.91085 66.0627 4.91085C65.3717 4.91085 64.7974 4.68874 64.3398 4.2445C63.8823 3.80026 63.6535 3.2427 63.6535 2.57181ZM64.1719 20.4816V6.55615H67.9538V20.4816H64.1719Z"
        fill="currentColor" />
</svg>
    