<svg viewBox="0 0 120 41" fill="none" xmlns="http://www.w3.org/2000/svg">
  <path
    d="M0 9.17469C0 11.2242 1.05902 13.0261 2.65268 14.0652C1.05902 15.1035 0 16.9053 0 18.9549V27.319H1.8594V18.9549C1.8594 16.7744 3.62102 15.0011 5.78717 15.0011H8.79234V13.1293H5.78717C3.62102 13.1293 1.8594 11.3552 1.8594 9.17469C1.8594 6.99497 3.62102 5.22086 5.78717 5.22086H8.79234V3.34912H5.78717C2.59591 3.34912 0 5.96225 0 9.17469Z"
    fill="black" />
  <path
    d="M38.9131 9.68894C38.9131 11.644 39.7971 13.3935 41.1825 14.5588C39.7868 15.9074 38.9131 17.799 38.9131 19.8962C38.9131 23.9381 42.1801 27.2609 46.1953 27.3022L48.0248 27.3141V23.7699L46.2316 23.7587C44.1372 23.7373 42.4332 22.0045 42.4332 19.8962C42.4332 17.7657 44.1554 16.0337 46.271 16.0337H48.0248V12.4894H45.216C43.6814 12.4894 42.4332 11.2329 42.4332 9.68894C42.4332 8.14504 43.6814 6.88848 45.216 6.88848H48.0248V3.34424H45.216C41.74 3.34424 38.9131 6.19074 38.9131 9.68894Z"
    fill="black" />
  <path d="M14.1954 3.34912H11.7422V27.319H20.9517V24.8495H14.1954V3.34912Z" fill="black" />
  <path
    d="M32.9587 21.7927C32.9587 23.5112 31.6063 24.9106 29.944 24.9106C28.281 24.9106 26.9286 23.5112 26.9286 21.7927V3.34912H23.9014V21.7927C23.9014 25.1924 26.6116 27.958 29.944 27.958C33.2757 27.958 35.9859 25.1924 35.9859 21.7927V3.34912H32.9587V21.7927Z"
    fill="black" />
  <path
    d="M57.7412 2.69238C54.0105 2.69238 50.9746 5.74765 50.9746 9.50304V27.3163H55.2888V9.50304C55.2888 8.1417 56.3888 7.03437 57.7412 7.03437C59.0927 7.03437 60.1928 8.1417 60.1928 9.50304V27.3163H64.5061V9.50304C64.5061 5.74765 61.4718 2.69238 57.7412 2.69238Z"
    fill="black" />
  <path
    d="M79.965 23.0952C75.7195 23.0952 72.2664 19.6192 72.2664 15.3463C72.2664 13.1213 73.2024 11.1131 74.696 9.69853C76.2715 10.5638 78.0292 11.144 79.9359 11.1853C81.744 11.2202 86.0597 11.0107 87.0241 8.17288C87.3545 7.20129 87.1842 6.13207 86.5565 5.24065C85.4502 3.67055 83.0546 2.75611 79.965 2.7315C78.134 2.7315 76.3937 3.12919 74.8245 3.842C73.2837 2.48384 72.1127 0.93517 71.6056 0.216797L67.6652 3.03473C68.4278 4.11427 69.4884 5.46053 70.8045 6.74646C68.714 9.00159 67.4326 12.0259 67.4326 15.3463C67.4326 22.3022 73.055 27.9611 79.965 27.9611C84.6443 27.9611 88.9009 25.3662 91.0718 21.1885L86.7899 18.9326C85.4549 21.5005 82.8393 23.0952 79.965 23.0952Z"
    fill="black" />
  <path
    d="M109.527 25.055C109.527 26.1393 109.273 27.9579 107.569 27.9579C106.654 27.9579 105.675 26.7918 105.675 25.055C105.675 25.055 105.528 22.3998 107.66 20.0597C108.181 19.4874 108.808 18.977 109.527 18.5237V25.055ZM115.381 10.4502V3.34424H109.527C109.527 7.08137 106.508 10.1216 102.795 10.1216C99.0833 10.1216 96.0632 7.08137 96.0632 3.34424H90.209C90.209 10.3303 95.855 16.0146 102.795 16.0146C103.014 16.0146 103.233 16.0083 103.449 15.9971C99.8679 19.8549 99.8285 24.2517 99.8679 25.1558C99.9066 30.0527 103.286 33.8755 107.593 33.8755C111.344 33.8755 115.381 31.1211 115.381 25.0725V16.4202C116.804 16.1694 118.309 16.067 120 16.0337V10.1009C118.39 10.1327 116.812 10.2486 115.381 10.4502Z"
    fill="#6B47ED" />
</svg>