<svg viewBox="0 0 17 17" fill="none" xmlns="http://www.w3.org/2000/svg">
    <g clip-path="url(#clip0_1905_10107)">
        <path
            d="M12.2891 1.83301H5.6224C3.78145 1.83301 2.28906 3.32539 2.28906 5.16634V11.833C2.28906 13.674 3.78145 15.1663 5.6224 15.1663H12.2891C14.13 15.1663 15.6224 13.674 15.6224 11.833V5.16634C15.6224 3.32539 14.13 1.83301 12.2891 1.83301Z"
            stroke="#1673FA" stroke-width="2" stroke-linecap="round" stroke-linejoin="round" />
        <path
            d="M11.6209 8.0802C11.7032 8.63503 11.6084 9.20168 11.3501 9.69954C11.0917 10.1974 10.683 10.6011 10.182 10.8533C9.68097 11.1055 9.1132 11.1933 8.55942 11.1042C8.00565 11.015 7.49407 10.7536 7.09746 10.357C6.70084 9.96036 6.43939 9.44878 6.35028 8.89501C6.26117 8.34124 6.34894 7.77346 6.60112 7.27245C6.85329 6.77144 7.25702 6.36269 7.75489 6.10436C8.25275 5.84603 8.8194 5.75126 9.37423 5.83353C9.94018 5.91746 10.4641 6.18118 10.8687 6.58574C11.2733 6.9903 11.537 7.51425 11.6209 8.0802Z"
            stroke="#1673FA" stroke-width="2" stroke-linecap="round" stroke-linejoin="round" />
        <path d="M12.6211 4.83301H12.6296" stroke="#1673FA" stroke-width="2" stroke-linecap="round"
            stroke-linejoin="round" />
    </g>
    <defs>
        <clipPath id="clip0_1905_10107">
            <rect width="16" height="16" fill="white" transform="translate(0.955078 0.5)" />
        </clipPath>
    </defs>
</svg>
    