<svg viewBox="0 0 16 17" fill="none" xmlns="http://www.w3.org/2000/svg">
    <path
        d="M15.35 0.5H0.65C0.3 0.5 0 0.8 0 1.15V15.8C0 16.2 0.3 16.5 0.65 16.5H15.3C15.65 16.5 15.95 16.2 15.95 15.85V1.15C16 0.8 15.7 0.5 15.35 0.5ZM4.75 14.15H2.35V6.5H4.75V14.15ZM3.55 5.45C2.8 5.45 2.15 4.85 2.15 4.05C2.15 3.3 2.75 2.65 3.55 2.65C4.3 2.65 4.95 3.25 4.95 4.05C4.95 4.85 4.3 5.45 3.55 5.45ZM13.65 14.15H11.3V10.45C11.3 9.55 11.3 8.45 10.05 8.45C8.8 8.45 8.65 9.4 8.65 10.4V14.2H6.3V6.5H8.5V7.55H8.55C8.85 6.95 9.65 6.3 10.8 6.3C13.2 6.3 13.65 7.9 13.65 9.95V14.15Z"
        fill="#1673FA" />
</svg>
    