<svg viewBox="0 0 110 112" fill="none" xmlns="http://www.w3.org/2000/svg">
  <path
    d="M49.5 56C49.5 71.2719 46.7106 85.0738 42.2218 95.0391C37.7119 105.051 31.5845 111 25 111C18.4155 111 12.2881 105.051 7.77821 95.0391C3.28937 85.0738 0.5 71.2719 0.5 56C0.5 40.7281 3.28937 26.9262 7.77821 16.9609C12.2881 6.94893 18.4155 1 25 1C31.5845 1 37.7119 6.94893 42.2218 16.9609C46.7106 26.9262 49.5 40.7281 49.5 56Z"
    stroke="url(#paint0_linear_145_233)" />
  <path
    d="M55.5 56C55.5 71.2645 52.3775 85.0591 47.3526 95.0192C42.3132 105.008 35.4429 111 28 111C20.5571 111 13.6868 105.008 8.64742 95.0192C3.62251 85.0591 0.5 71.2645 0.5 56C0.5 40.7355 3.62251 26.9409 8.64742 16.9808C13.6868 6.99207 20.5571 1 28 1C35.4429 1 42.3132 6.99207 47.3526 16.9808C52.3775 26.9409 55.5 40.7355 55.5 56Z"
    stroke="url(#paint1_linear_145_233)" />
  <path
    d="M61.5 56C61.5 71.2569 58.0448 85.0447 52.4838 95.0006C46.9137 104.973 39.2978 111 31 111C22.7022 111 15.0863 104.973 9.51621 95.0006C3.95523 85.0447 0.5 71.2569 0.5 56C0.5 40.7431 3.95523 26.9553 9.51621 16.9994C15.0863 7.02707 22.7022 1 31 1C39.2978 1 46.9137 7.02707 52.4838 16.9994C58.0448 26.9553 61.5 40.7431 61.5 56Z"
    stroke="url(#paint2_linear_145_233)" />
  <path
    d="M67.5 56C67.5 71.249 63.7125 85.0304 57.6153 94.9832C51.5129 104.944 43.1493 111 34 111C24.8507 111 16.4871 104.944 10.3847 94.9832C4.2875 85.0304 0.5 71.249 0.5 56C0.5 40.751 4.2875 26.9696 10.3847 17.0168C16.4871 7.05554 24.8507 1 34 1C43.1493 1 51.5129 7.05554 57.6153 17.0168C63.7125 26.9696 67.5 40.751 67.5 56Z"
    stroke="url(#paint3_linear_145_233)" />
  <path
    d="M73.5 56C73.5 71.241 69.3807 85.0164 62.7469 94.9671C56.1108 104.921 46.9981 111 37 111C27.0019 111 17.8892 104.921 11.2531 94.9671C4.61932 85.0164 0.5 71.241 0.5 56C0.5 40.759 4.61932 26.9836 11.2531 17.0329C17.8892 7.07879 27.0019 1 37 1C46.9981 1 56.1108 7.07879 62.7469 17.0329C69.3807 26.9836 73.5 40.759 73.5 56Z"
    stroke="url(#paint4_linear_145_233)" />
  <path
    d="M79.5 56C79.5 71.2327 75.0493 85.0027 67.8786 94.9521C60.7074 104.902 50.8443 111 40 111C29.1557 111 19.2926 104.902 12.1214 94.9521C4.95067 85.0027 0.5 71.2327 0.5 56C0.5 40.7673 4.95067 26.9973 12.1214 17.0479C19.2926 7.09787 29.1557 1 40 1C50.8443 1 60.7074 7.09787 67.8786 17.0479C75.0493 26.9973 79.5 40.7673 79.5 56Z"
    stroke="url(#paint5_linear_145_233)" />
  <path
    d="M85.5 56C85.5 86.5019 66.3609 111 43 111C19.6391 111 0.5 86.5019 0.5 56C0.5 25.4981 19.6391 1 43 1C66.3609 1 85.5 25.4981 85.5 56Z"
    stroke="url(#paint6_linear_145_233)" />
  <path
    d="M91.5 56C91.5 86.4676 71.0452 111 46 111C20.9548 111 0.5 86.4676 0.5 56C0.5 25.5324 20.9548 1 46 1C71.0452 1 91.5 25.5324 91.5 56Z"
    stroke="url(#paint7_linear_145_233)" />
  <path
    d="M97.5 56C97.5 86.436 75.7291 111 49 111C22.2709 111 0.5 86.436 0.5 56C0.5 25.564 22.2709 1 49 1C75.7291 1 97.5 25.564 97.5 56Z"
    stroke="url(#paint8_linear_145_233)" />
  <path
    d="M103.5 56C103.5 86.4068 80.4125 111 52 111C23.5875 111 0.5 86.4068 0.5 56C0.5 25.5932 23.5875 1 52 1C80.4125 1 103.5 25.5932 103.5 56Z"
    stroke="url(#paint9_linear_145_233)" />
  <path
    d="M109.5 56C109.5 86.3799 85.0953 111 55 111C24.9047 111 0.5 86.3799 0.5 56C0.5 25.6201 24.9047 1 55 1C85.0953 1 109.5 25.6201 109.5 56Z"
    stroke="url(#paint10_linear_145_233)" />
  <defs>
    <linearGradient id="paint0_linear_145_233" x1="47.5961" y1="0.343502" x2="-26.1595" y2="29.1509"
      gradientUnits="userSpaceOnUse">
      <stop stop-color="#122544" />
      <stop offset="1" stop-color="#1673FA" />
    </linearGradient>
    <linearGradient id="paint1_linear_145_233" x1="53.3077" y1="0.343502" x2="-26.6077" y2="35.3024"
      gradientUnits="userSpaceOnUse">
      <stop stop-color="#122544" />
      <stop offset="1" stop-color="#1673FA" />
    </linearGradient>
    <linearGradient id="paint2_linear_145_233" x1="59.0192" y1="0.343502" x2="-26.3624" y2="41.6953"
      gradientUnits="userSpaceOnUse">
      <stop stop-color="#122544" />
      <stop offset="1" stop-color="#1673FA" />
    </linearGradient>
    <linearGradient id="paint3_linear_145_233" x1="64.7308" y1="0.343502" x2="-25.4373" y2="48.2396"
      gradientUnits="userSpaceOnUse">
      <stop stop-color="#122544" />
      <stop offset="1" stop-color="#1673FA" />
    </linearGradient>
    <linearGradient id="paint4_linear_145_233" x1="70.4423" y1="0.343502" x2="-23.858" y2="54.8545"
      gradientUnits="userSpaceOnUse">
      <stop stop-color="#122544" />
      <stop offset="1" stop-color="#1673FA" />
    </linearGradient>
    <linearGradient id="paint5_linear_145_233" x1="76.1538" y1="0.343502" x2="-21.6588" y2="61.4692"
      gradientUnits="userSpaceOnUse">
      <stop stop-color="#122544" />
      <stop offset="1" stop-color="#1673FA" />
    </linearGradient>
    <linearGradient id="paint6_linear_145_233" x1="81.8654" y1="0.343502" x2="-18.8798" y2="68.0237"
      gradientUnits="userSpaceOnUse">
      <stop stop-color="#122544" />
      <stop offset="1" stop-color="#1673FA" />
    </linearGradient>
    <linearGradient id="paint7_linear_145_233" x1="87.5769" y1="0.343502" x2="-15.5655" y2="74.4684"
      gradientUnits="userSpaceOnUse">
      <stop stop-color="#122544" />
      <stop offset="1" stop-color="#1673FA" />
    </linearGradient>
    <linearGradient id="paint8_linear_145_233" x1="93.2884" y1="0.343502" x2="-11.7618" y2="80.7631"
      gradientUnits="userSpaceOnUse">
      <stop stop-color="#122544" />
      <stop offset="1" stop-color="#1673FA" />
    </linearGradient>
    <linearGradient id="paint9_linear_145_233" x1="99" y1="0.343502" x2="-7.51511" y2="86.8768"
      gradientUnits="userSpaceOnUse">
      <stop stop-color="#122544" />
      <stop offset="1" stop-color="#1673FA" />
    </linearGradient>
    <linearGradient id="paint10_linear_145_233" x1="104.712" y1="0.343502" x2="-2.87087"
      y2="92.7862" gradientUnits="userSpaceOnUse">
      <stop stop-color="#122544" />
      <stop offset="1" stop-color="#1673FA" />
    </linearGradient>
  </defs>
</svg>