<svg viewBox="0 0 17 17" fill="none" xmlns="http://www.w3.org/2000/svg">
    <g clip-path="url(#clip0_1905_10114)">
        <path
            d="M8.60046 0.5135C9.47296 0.5 10.3405 0.508 11.207 0.5C11.2595 1.5205 11.6265 2.56 12.3735 3.2815C13.119 4.021 14.1735 4.3595 15.1995 4.474V7.1585C14.238 7.127 13.272 6.927 12.3995 6.513C12.0195 6.341 11.6655 6.1195 11.319 5.893C11.3145 7.841 11.327 9.7865 11.3065 11.7265C11.2545 12.6585 10.947 13.586 10.405 14.354C9.53296 15.6325 8.01946 16.466 6.46496 16.492C5.51146 16.5465 4.55896 16.2865 3.74646 15.8075C2.39996 15.0135 1.45246 13.56 1.31446 12C1.29846 11.6665 1.29296 11.3335 1.30646 11.008C1.42646 9.7395 2.05396 8.526 3.02796 7.7005C4.13196 6.739 5.67846 6.281 7.12646 6.552C7.13996 7.5395 7.10046 8.526 7.10046 9.5135C6.43896 9.2995 5.66596 9.3595 5.08796 9.761C4.66596 10.0345 4.34546 10.4535 4.17846 10.9275C4.04046 11.2655 4.07996 11.641 4.08796 12C4.24646 13.094 5.29846 14.0135 6.42146 13.914C7.16596 13.906 7.87946 13.474 8.26746 12.8415C8.39296 12.62 8.53346 12.3935 8.54096 12.133C8.60646 10.9405 8.58046 9.753 8.58846 8.5605C8.59396 5.873 8.58046 3.193 8.60096 0.514L8.60046 0.5135Z"
            fill="#1673FA" />
    </g>
    <defs>
        <clipPath id="clip0_1905_10114">
            <rect width="16" height="16" fill="white" transform="translate(0.246094 0.5)" />
        </clipPath>
    </defs>
</svg>
    