<svg viewBox="0 0 115 116" fill="none" xmlns="http://www.w3.org/2000/svg">
    <path
        d="M57.5 70C41.7848 70 27.5724 68.6027 17.302 66.3504C12.1627 65.2234 8.03762 63.888 5.20949 62.4217C3.79481 61.6882 2.72943 60.9345 2.0236 60.1781C1.32012 59.4242 0.999999 58.6977 0.999999 58C0.999999 57.3023 1.32012 56.5758 2.0236 55.8219C2.72943 55.0655 3.79481 54.3118 5.20949 53.5783C8.03762 52.112 12.1628 50.7766 17.302 49.6496C27.5724 47.3973 41.7848 46 57.5 46C73.2152 46 87.4276 47.3973 97.698 49.6496C102.837 50.7766 106.962 52.112 109.791 53.5783C111.205 54.3118 112.271 55.0655 112.976 55.8219C113.68 56.5758 114 57.3023 114 58C114 58.6977 113.68 59.4242 112.976 60.1781C112.271 60.9345 111.205 61.6882 109.791 62.4217C106.962 63.888 102.837 65.2234 97.698 66.3504C87.4276 68.6027 73.2152 70 57.5 70Z"
        stroke="url(#paint0_linear_145_231)" />
    <path
        d="M79.5 58C79.5 73.6935 76.9882 87.8784 72.9448 98.1215C70.9226 103.245 68.527 107.357 65.8925 110.18C63.2587 113.002 60.4223 114.5 57.5 114.5C54.5777 114.5 51.7413 113.002 49.1075 110.18C46.473 107.357 44.0774 103.245 42.0552 98.1215C38.0118 87.8784 35.5 73.6935 35.5 58C35.5 42.3065 38.0118 28.1216 42.0552 17.8785C44.0774 12.7555 46.473 8.64341 49.1075 5.82049C51.7413 2.99834 54.5777 1.5 57.5 1.5C60.4223 1.5 63.2587 2.99834 65.8925 5.82049C68.527 8.64341 70.9226 12.7555 72.9448 17.8785C76.9882 28.1216 79.5 42.3065 79.5 58Z"
        stroke="url(#paint1_linear_145_231)" />
    <path
        d="M57.5 95C41.8435 95 27.6921 90.824 17.4697 84.0988C7.24321 77.3708 0.999998 68.133 0.999998 58C0.999999 47.867 7.24322 38.6292 17.4697 31.9012C27.6921 25.176 41.8435 21 57.5 21C73.1565 21 87.3079 25.176 97.5303 31.9012C107.757 38.6292 114 47.867 114 58C114 68.133 107.757 77.3708 97.5303 84.0988C87.3079 90.824 73.1565 95 57.5 95Z"
        stroke="url(#paint2_linear_145_231)" />
    <circle cx="57" cy="58" r="56.5" stroke="url(#paint3_linear_145_231)" />
    <path
        d="M45.25 58.25C45.25 42.5348 46.6473 28.3224 48.8996 18.052C50.0266 12.9127 51.362 8.78762 52.8283 5.95949C53.5618 4.54481 54.3155 3.47943 55.0719 2.7736C55.8259 2.07012 56.5523 1.75 57.25 1.75C57.9477 1.75 58.6742 2.07012 59.4281 2.7736C60.1845 3.47943 60.9382 4.54481 61.6717 5.95949C63.138 8.78762 64.4734 12.9127 65.6004 18.052C67.8527 28.3224 69.25 42.5348 69.25 58.25C69.25 73.9652 67.8527 88.1776 65.6004 98.448C64.4734 103.587 63.138 107.712 61.6717 110.541C60.9382 111.955 60.1845 113.021 59.4281 113.726C58.6742 114.43 57.9477 114.75 57.25 114.75C56.5523 114.75 55.8258 114.43 55.0719 113.726C54.3155 113.021 53.5618 111.955 52.8283 110.541C51.362 107.712 50.0266 103.587 48.8996 98.448C46.6473 88.1776 45.25 73.9652 45.25 58.25Z"
        stroke="url(#paint4_linear_145_231)" />
    <path
        d="M57.25 80.25C41.5565 80.25 27.3716 77.7382 17.1285 73.6948C12.0054 71.6726 7.89342 69.277 5.07049 66.6425C2.24834 64.0087 0.749999 61.1723 0.749999 58.25C0.749999 55.3277 2.24834 52.4913 5.07049 49.8575C7.89342 47.223 12.0054 44.8274 17.1285 42.8052C27.3716 38.7618 41.5565 36.25 57.25 36.25C72.9435 36.25 87.1284 38.7618 97.3715 42.8052C102.495 44.8274 106.607 47.223 109.43 49.8575C112.252 52.4913 113.75 55.3277 113.75 58.25C113.75 61.1723 112.252 64.0087 109.43 66.6425C106.607 69.277 102.495 71.6726 97.3715 73.6948C87.1284 77.7382 72.9435 80.25 57.25 80.25Z"
        stroke="url(#paint5_linear_145_231)" />
    <path
        d="M20.25 58.25C20.25 42.5935 24.426 28.4421 31.1512 18.2197C37.8792 7.99321 47.117 1.75 57.25 1.75C67.383 1.75 76.6208 7.99322 83.3488 18.2197C90.0741 28.4421 94.25 42.5935 94.25 58.25C94.25 73.9065 90.074 88.0579 83.3488 98.2803C76.6208 108.507 67.383 114.75 57.25 114.75C47.117 114.75 37.8792 108.507 31.1512 98.2803C24.426 88.0579 20.25 73.9065 20.25 58.25Z"
        stroke="url(#paint6_linear_145_231)" />
    <circle cx="57.25" cy="57.75" r="56.5" transform="rotate(90 57.25 57.75)"
        stroke="url(#paint7_linear_145_231)" />
    <defs>
        <linearGradient id="paint0_linear_145_231" x1="114.661" y1="69.2981" x2="106.861"
            y2="28.2776" gradientUnits="userSpaceOnUse">
            <stop stop-color="#122544" />
            <stop offset="1" stop-color="#1673FA" />
        </linearGradient>
        <linearGradient id="paint1_linear_145_231" x1="77.8365" y1="0.839272" x2="9.3528"
            y2="24.2792" gradientUnits="userSpaceOnUse">
            <stop stop-color="#122544" />
            <stop offset="1" stop-color="#1673FA" />
        </linearGradient>
        <linearGradient id="paint2_linear_145_231" x1="114.661" y1="91.8942" x2="59.7808"
            y2="-4.31035" gradientUnits="userSpaceOnUse">
            <stop stop-color="#122544" />
            <stop offset="1" stop-color="#1673FA" />
        </linearGradient>
        <linearGradient id="paint3_linear_145_231" x1="108.519" y1="0.839272" x2="-2.11699"
            y2="96.7703" gradientUnits="userSpaceOnUse">
            <stop stop-color="#122544" />
            <stop offset="1" stop-color="#1673FA" />
        </linearGradient>
        <linearGradient id="paint4_linear_145_231" x1="45.9519" y1="115.411" x2="86.9724"
            y2="107.611" gradientUnits="userSpaceOnUse">
            <stop stop-color="#122544" />
            <stop offset="1" stop-color="#1673FA" />
        </linearGradient>
        <linearGradient id="paint5_linear_145_231" x1="114.411" y1="78.5865" x2="90.9708"
            y2="10.1028" gradientUnits="userSpaceOnUse">
            <stop stop-color="#122544" />
            <stop offset="1" stop-color="#1673FA" />
        </linearGradient>
        <linearGradient id="paint6_linear_145_231" x1="23.3558" y1="115.411" x2="119.56"
            y2="60.5308" gradientUnits="userSpaceOnUse">
            <stop stop-color="#122544" />
            <stop offset="1" stop-color="#1673FA" />
        </linearGradient>
        <linearGradient id="paint7_linear_145_231" x1="108.769" y1="0.589268" x2="-1.86699"
            y2="96.5203" gradientUnits="userSpaceOnUse">
            <stop stop-color="#122544" />
            <stop offset="1" stop-color="#1673FA" />
        </linearGradient>
    </defs>
</svg>