<svg viewBox="0 0 24 17" fill="none" xmlns="http://www.w3.org/2000/svg">
    <path
        d="M22.7538 2.97242C22.6259 2.4945 22.3765 2.05882 22.0303 1.70874C21.6842 1.35866 21.2534 1.10641 20.7809 0.977109C19.0509 0.5 12.0891 0.5 12.0891 0.5C12.0891 0.5 5.12693 0.514479 3.39724 0.991587C2.92475 1.12091 2.49399 1.37317 2.14786 1.72325C1.80174 2.07332 1.55233 2.509 1.42447 2.98689C0.901211 6.09568 0.698207 10.8324 1.43878 13.8167C1.56664 14.2946 1.81606 14.7303 2.16218 15.0804C2.5083 15.4304 2.93906 15.6827 3.41156 15.812C5.14139 16.2891 12.1034 16.2891 12.1034 16.2891C12.1034 16.2891 19.0653 16.2891 20.7952 15.812C21.2677 15.6827 21.6984 15.4304 22.0446 15.0804C22.3907 14.7303 22.6401 14.2946 22.768 13.8167C23.3197 10.7036 23.49 5.96965 22.7538 2.97242Z"
        fill="#1673FA" />
    <path d="M9.31445 11.6459L15.8159 8.3953L9.31445 5.14453V11.6459Z" fill="white" />
</svg>
    